<?xml version="1.0" encoding="UTF-8"?>
<svg width="339px" height="296px" viewBox="0 0 339 296" version="1.1" xmlns="http://www.w3.org/2000/svg" xmlns:xlink="http://www.w3.org/1999/xlink">
    <!-- Generator: Sketch 62 (91390) - https://sketch.com -->
    <title>Logo</title>
    <desc>DOCUMINDS.</desc>
    <g id="Page-1" stroke="none" stroke-width="1" fill="#fff" fill-rule="evenodd">
        <g id="Icon" transform="translate(-87.000000, -108.000000)" fill="#fff" fill-rule="nonzero">
            <g id="logo2" transform="translate(87.000000, 108.000000)">
                <path d="M178.781972,143 L178.781972,137.712074 L182.711434,137.712074 L182.711434,133.783087 L188,133.783087 L188,129.404912 L182.711434,129.404912 L182.711434,125.720421 L188,125.720421 L188,121.342245 L182.711434,121.342245 L182.711434,117.657755 L188,117.657755 L188,113.279579 L182.711434,113.279579 L182.711434,109.595088 L188,109.595088 L188,105.216913 L182.711434,105.216913 L182.711434,101.287926 L178.781972,101.287926 L178.781972,96 L174.403267,96 L174.403267,101.287926 L170.71833,101.287926 L170.71833,96 L166.339625,96 L166.339625,101.287926 L162.654688,101.287926 L162.654688,96 L158.275983,96 L158.275983,101.287926 L154.591047,101.287926 L154.591047,96 L150.212341,96 L150.212341,101.287926 L146.288566,101.287926 L146.288566,105.216913 L141,105.216913 L141,109.595088 L146.288566,109.595088 L146.288566,113.279579 L141,113.279579 L141,117.657755 L146.288566,117.657755 L146.288566,121.342245 L141,121.342245 L141,125.720421 L146.288566,125.720421 L146.288566,129.404912 L141,129.404912 L141,133.783087 L146.288566,133.783087 L146.288566,137.712074 L150.212341,137.712074 L150.212341,143 L154.591047,143 L154.591047,137.712074 L158.28167,137.712074 L158.28167,143 L162.660375,143 L162.660375,137.712074 L166.339625,137.712074 L166.339625,143 L170.71833,143 L170.71833,137.712074 L174.403267,137.712074 L174.403267,143 L178.781972,143 Z M149.262674,134.755383 L149.262674,104.221873 L179.799879,104.221873 L179.799879,134.755383 L149.262674,134.755383 Z" id="Shape"></path>
                <path d="M151.566251,107.435137 L176.329433,107.435137 L176.329433,132.193781 L151.566251,132.193781 L151.566251,107.435137 Z M309.001053,66.4835818 L268.68666,66.4835818 L242.798135,92.3673617 L224.594736,92.3673617 L207.805083,107.231594 L189.098391,107.231594 L189.098391,109.374441 L208.602436,109.374441 L225.392089,94.5102085 L243.657693,94.5102085 L269.546217,68.6264286 L309.018018,68.6264286 C309.526966,71.1707058 311.738066,73.0873946 314.458114,73.0873946 C317.506151,73.0873946 320,70.5940029 320,67.5465243 C320,64.4990456 317.506151,62 314.458114,62 C311.743721,62 309.532621,63.9223428 309.023673,66.46662 L309.001053,66.4835818 Z M148.342909,240.014594 L169.040156,219.321139 L169.040156,144.983014 L166.896917,144.983014 L166.896917,218.484355 L146.199669,239.177809 L146.199669,280.344214 L140.657783,285.885085 C139.744504,285.247661 138.655648,284.909801 137.541886,284.918259 C134.488194,284.918259 132,287.411651 132,290.45913 C132,293.512262 134.488194,296 137.541886,296 C140.589923,296 143.083772,293.512262 143.083772,290.45913 C143.092414,289.346436 142.752274,288.258978 142.111114,287.349458 L148.275049,281.186653 L148.275049,240.00894 L148.342909,240.014594 Z" id="Shape"></path>
                <path d="M135.835606,215.017136 L162.201564,183.556505 L162.427881,183.274498 L162.427881,144.583223 L160.277867,144.583223 L160.277867,181.813705 L149.143059,181.813705 L139.411418,191.514725 L122.618679,191.514725 L113.797965,182.716126 L100.846961,182.716126 C100.41996,180.818795 98.7351669,179.46678 96.7845664,179.456132 C95.6737931,179.450089 94.6067602,179.887282 93.8213132,180.670257 C93.0358662,181.453233 92.5972938,182.516908 92.6033555,183.624186 C92.6033555,185.936638 94.4591568,187.7866 96.7845664,187.7866 C98.6152638,187.766721 100.230285,186.587611 100.801697,184.853734 L112.960591,184.853734 L121.775647,193.646693 L140.39024,193.646693 L150.110565,183.951314 L159.174571,183.951314 L134.902047,212.885168 L105.775019,212.885168 L73.637971,244.915452 C72.7264629,244.278702 71.6391362,243.939735 70.526109,243.94535 C67.4708263,243.94535 64.9813367,246.432646 64.9813367,249.472675 C64.9813367,252.518344 67.4708263,255 70.526109,255 C73.5757338,255 76.0708813,252.518344 76.0708813,249.472675 C76.0789187,248.363651 75.7408069,247.279579 75.1033751,246.370605 L106.61805,214.955095 L135.880869,214.955095 L135.835606,215.017136 Z M96.739303,185.688473 C95.6189829,185.685358 94.7127308,184.778591 94.7137725,183.661792 C94.7148142,182.544994 95.6227563,181.639908 96.7430802,181.63887 C97.8634041,181.637832 98.7730331,182.541232 98.7761581,183.658027 C98.7761581,184.786052 97.8652312,185.688473 96.739303,185.688473 Z M5.59003575,194.994683 C8.64531846,194.994683 11.1348081,192.507387 11.1348081,189.467358 C11.1348081,188.339333 10.8066481,187.262068 10.1673019,186.359648 L29.9021649,166.681243 L69.4397863,166.681243 L87.4999018,148.689236 L108.490826,148.689236 L124.740403,132.558472 L139.501945,132.558472 L139.501945,130.415223 L123.87474,130.415223 L107.636478,146.613669 L86.6342383,146.613669 L68.5797808,164.611316 L29.0421594,164.611316 L8.66229225,184.927056 C7.75078413,184.290306 6.66345743,183.951339 5.55043024,183.956954 C2.49514754,183.956954 0,186.44425 0,189.484279 C0,192.524307 2.49514754,195.011604 5.54477231,195.011604 L5.59003575,194.994683 Z M159.593258,68.1989763 L159.593258,94.414289 L161.737613,94.414289 L161.737613,69.0337152 L172.323602,57.2458486 L172.323602,10.6527551 C174.869671,10.1451437 176.793368,7.94549392 176.793368,5.23259258 C176.630418,2.29708944 174.195041,0 171.245766,0 C168.296492,0 165.861115,2.29708944 165.698165,5.23259258 C165.698165,7.93985379 167.616204,10.1451437 170.156615,10.647115 L170.156615,56.3885493 L159.576284,68.1764158 L159.593258,68.1989763 Z M169.715296,84.6117474 L189.121999,64.0365622 L189.121999,40.3480266 L208.590939,20.9403477 L208.590939,11.75258 C211.137008,11.2449685 213.060705,9.04531879 213.060705,6.33805757 C213.051385,3.28614187 210.571824,0.814382992 207.510275,0.805092468 C204.454992,0.805092468 201.965502,3.29238871 201.965502,6.33241745 C201.965502,9.03967866 203.889199,11.2449685 206.423952,11.75258 L206.423952,20.0999687 L186.955012,39.5132877 L186.955012,63.2582246 L167.548309,83.8446901 L167.548309,94.4312094 L169.698322,94.4312094 L169.698322,84.6737888 L169.715296,84.6117474 Z M194.514007,77.5221071 L206.452242,89.4227762 L212.789124,89.4227762 C213.256688,91.2547692 214.915614,92.534007 216.811913,92.5248463 C219.131665,92.5248463 220.993124,90.6748845 220.993124,88.3624322 C221.047353,86.2394108 219.483327,84.4188912 217.370598,84.1458269 C215.257869,83.8727625 213.279817,85.2354786 212.789124,87.3020882 L207.312247,87.3020882 L196.618758,76.6422472 L196.618758,68.6219859 L213.807552,51.4759982 L262.29602,51.4759982 L279.337708,34.4992143 C280.253104,35.1317298 281.341436,35.4684252 282.455228,35.4636761 C285.51051,35.4636761 288,32.9763799 288,29.9363511 C288,26.8906823 285.51051,24.403386 282.455228,24.403386 C279.396803,24.4126765 276.919775,26.8819103 276.910455,29.930711 C276.910455,31.0587365 277.238615,32.1360009 277.877962,33.0384213 L261.481278,49.389151 L212.99281,49.389151 L175.63915,86.6196328 L175.63915,94.4594101 L177.789163,94.4594101 L177.789163,87.5220532 L194.536639,70.8272757 L194.536639,77.5897886 L194.514007,77.5221071 Z M216.811913,86.3150659 C217.932233,86.3181811 218.838485,87.2249478 218.837444,88.3417465 C218.836402,89.4585452 217.92846,90.3636303 216.808136,90.3646687 C215.687812,90.3657071 214.778183,89.4623067 214.775058,88.3455118 C214.775058,87.2241275 215.686989,86.3150659 216.811913,86.3150659 Z" id="Shape"></path>
                <path d="M11.4460505,137.123945 C14.1577769,137.123945 16.366704,135.20424 16.8695033,132.663454 L51.1671926,132.663454 L72.9739923,154.457749 L103.02896,124.420017 L139.309599,124.420017 L139.309599,122.280111 L102.147649,122.280111 L72.99659,151.414452 L52.0936991,130.529195 L16.9655436,130.529195 C16.4548112,127.937649 14.1792906,126.070473 11.5364414,126.074351 C8.48574919,126.074351 6,128.56432 6,131.607617 C6,134.65656 8.48574919,137.146529 11.5364414,137.146529 L11.4460505,137.123945 Z M58.6244401,201.705068 L58.6244401,208.988653 C56.0288212,209.492251 54.1562786,211.766441 54.16138,214.408996 C54.16138,217.457939 56.6584385,219.942262 59.7034813,219.942262 C62.748524,219.942262 65.2399226,217.457939 65.2399226,214.408996 C65.2483205,211.769146 63.3805154,209.494952 60.7881718,208.988653 L60.7881718,202.608458 L100.44717,162.972203 L145.970277,162.972203 L154.331433,149.195499 L154.331433,144.514808 L152.195949,144.514808 L152.195949,148.574418 L144.738701,160.837943 L99.5432614,160.837943 L58.6413884,201.705068 L58.6244401,201.705068 Z M223.802474,226.892722 C226.853166,226.892722 229.338915,224.402753 229.338915,221.359456 C229.338915,218.31616 226.853166,215.82619 223.802474,215.82619 C222.672588,215.82619 221.599196,216.153669 220.695287,216.786042 L207.006718,203.116616 L182.996641,203.116616 L176.511095,191.824235 L176.511095,146.586959 L180.019391,146.586959 L194.583622,160.13217 L194.583622,168.821656 L206.503919,180.735118 L212.831281,180.735118 C213.298649,182.571133 214.958123,183.852295 216.853675,183.840522 C219.169941,183.840522 221.022954,181.988572 221.022954,179.673634 C221.077101,177.54833 219.515426,175.725854 217.405871,175.452496 C215.296316,175.179138 213.321236,176.543319 212.831281,178.61215 L207.368282,178.61215 L196.690859,167.940851 L196.690859,159.245718 L180.815961,144.514808 L174.330415,144.514808 L174.330415,192.43967 L181.725519,205.324276 L206.063263,205.324276 L219.107797,218.355683 C218.468879,219.266874 218.129299,220.354092 218.136095,221.466734 C218.136095,224.515676 220.633143,227 223.672537,227 L223.802474,226.892722 Z M216.853675,177.601482 C217.972311,177.604601 218.877202,178.512342 218.876162,179.630341 C218.875122,180.74834 217.968544,181.654398 216.849903,181.655438 C215.731262,181.656477 214.823,180.752106 214.81988,179.634111 C214.81988,178.504873 215.723789,177.601482 216.853675,177.601482 Z M198.843292,130.286408 L189.578227,130.286408 L189.578227,132.426315 L198.052372,132.426315 L224.491704,156.93078 L224.491704,172.344879 L245.168618,193.009935 L257.812042,193.009935 C258.320491,195.550721 260.523768,197.470425 263.235495,197.470425 C266.286187,197.470425 268.777586,194.974809 268.777586,191.931513 C268.777586,188.88257 266.286187,186.398246 263.241144,186.398246 C260.529418,186.398246 258.314841,188.317951 257.812042,190.85309 L246.004733,190.85309 L226.559395,171.418904 L226.559395,155.959635 L198.894137,130.218654 L198.843292,130.286408 Z M333.463559,138.535492 C336.514251,138.535492 339,136.045522 339,133.002226 C339,129.953283 336.514251,127.46896 333.463559,127.46896 C330.864821,127.46896 328.718037,129.27574 328.0966,131.630202 L304.425489,131.630202 L288.776568,115.990255 L256.461828,115.990255 L239.180222,133.267597 L217.486411,133.267597 L206.475672,122.257526 L189.595175,122.257526 L189.595175,124.403078 L205.571763,124.403078 L216.588151,135.401857 L240.021987,135.401857 L257.297944,118.135807 L287.86136,118.135807 L303.510281,133.775754 L327.961014,133.775754 C328.356474,136.418171 330.610596,138.518554 333.435311,138.518554 L333.463559,138.535492 Z M233.801965,103.579929 L280.635739,103.579929 L292.369605,91.8471457 L318.300489,91.8471457 C318.808937,94.3879313 321.012215,96.3019897 323.723941,96.3019897 C326.774634,96.3019897 329.266032,93.8120199 329.266032,90.7687234 C329.259829,87.7144407 326.785618,85.2391258 323.729591,85.2298108 C321.017864,85.2298108 318.808937,87.1495155 318.300489,89.690301 L291.465696,89.690301 L279.726181,101.417438 L233.005395,101.417438 L217.407319,115.092511 L189.555629,115.092511 L189.555629,117.232417 L218.198239,117.232417 L233.801965,103.557344 L233.801965,103.579929 Z M151.331586,94.2072532 L153.47272,94.2072532 L153.47272,87.4826407 L137.145867,69.9229892 L137.145867,53.4925758 L117.259874,33.6179864 L102.006413,33.6179864 L96.029316,27.6443172 C96.6671161,26.7347005 97.006642,25.6496301 97.0010179,24.5389126 C96.9917298,21.4859105 94.5193194,19.0123965 91.4645765,19 C88.4138844,19 85.9224857,21.4899699 85.9224857,24.5332664 C85.9224857,27.5765629 88.4138844,30.0665328 91.4589271,30.0665328 C92.5888131,30.0665328 93.6678542,29.7390537 94.571763,29.1010342 L101.192895,35.7183691 L116.446356,35.7183691 L135.089475,54.3507967 L135.089475,70.719102 L151.416327,88.2787535 L151.416327,94.1394989 L151.331586,94.2072532 Z M139.281352,106.798257 L116.751425,106.798257 L116.751425,70.2109449 L97.9501221,51.4147778 L60.8333673,51.4147778 C60.3222288,48.8211431 58.0435887,46.9533509 55.3986156,46.9599164 C52.3535729,46.9599164 49.8621743,49.4555498 49.8621743,52.4932001 C49.8621743,55.5308505 52.3535729,58.0321127 55.3986156,58.0321127 C58.110342,58.0321127 60.3192691,56.112408 60.8277178,53.5772687 L97.0405639,53.5772687 L114.610291,71.1369201 L114.610291,106.820842 L110.26023,106.820842 L95.6959996,93.281278 L95.6959996,84.5861451 L83.7757024,72.67833 L77.4483408,72.67833 C76.9814794,70.8443678 75.3250464,69.5637549 73.4315961,69.5729254 C71.1153298,69.5729254 69.2623168,71.4192296 69.2623168,73.7398138 C69.2623168,76.0603979 71.1153298,77.9067021 73.4315961,77.9067021 C75.3245835,77.9126245 76.9785275,76.6298069 77.4426914,74.7956513 L82.9226384,74.7956513 L93.6000611,85.4669508 L93.6000611,94.1620837 L109.46931,108.89864 L139.2983,108.89864 L139.2983,106.753088 L139.281352,106.798257 Z M73.4089984,75.8119656 C72.2857645,75.8119656 71.3752036,74.9019268 71.3752036,73.7793371 C71.3752036,72.6567474 72.2857645,71.7467087 73.4089984,71.7467087 C74.5322322,71.7467087 75.4427932,72.6567474 75.4427932,73.7793371 C75.4427932,74.9085752 74.5388844,75.8119656 73.4089984,75.8119656 Z" id="Shape"></path>
                <path d="M12.0057221,120.131257 C11.9951417,122.610281 13.8699428,124.69782 16.351635,124.970312 C18.8333271,125.242805 21.1222325,123.612444 21.6574689,121.191028 L38.9057081,121.191028 L64.2330273,96.0440222 L85.8586176,117.510016 L139,117.510016 L139,115.373563 L86.7670173,115.373563 L64.2330273,93 L38.0029859,119.054575 L21.6517914,119.054575 C21.116555,116.63316 18.8276496,115.002799 16.3459575,115.275291 C13.8642653,115.547783 11.9894642,117.635323 12,120.114346 L12.0057221,120.131257 Z" id="Path"></path>
            </g>
        </g>
    </g>
</svg>